<svg xmlns="http://www.w3.org/2000/svg" viewBox="0 0 320 260" role="img" aria-labelledby="title desc"><title id="title">폐쇄성 판다 예시</title><desc id="desc">윤곽선 일부가 생략되어도 판다의 얼굴과 몸으로 인식되는 흑백 심볼</desc><rect width="320" height="260" rx="24" fill="#fff"/><g fill="#111"><ellipse cx="105" cy="62" rx="35" ry="31" transform="rotate(-25 105 62)"/><ellipse cx="215" cy="62" rx="35" ry="31" transform="rotate(25 215 62)"/><ellipse cx="126" cy="111" rx="27" ry="36" transform="rotate(28 126 111)"/><ellipse cx="194" cy="111" rx="27" ry="36" transform="rotate(-28 194 111)"/><ellipse cx="160" cy="145" rx="13" ry="9"/><path d="M85 169c15 4 29 4 41-2 8 28 20 49 34 64H91c-13-18-16-39-6-62Z"/><path d="M235 169c-15 4-29 4-41-2-8 28-20 49-34 64h69c13-18 16-39 6-62Z"/></g><g fill="none" stroke="#111" stroke-width="8" stroke-linecap="round"><path d="M122 79c12-11 24-16 38-16s26 5 38 16"/><path d="M115 149c8 10 17 16 28 19"/><path d="M205 149c-8 10-17 16-28 19"/></g></svg>